<svg width="240" height="80" viewBox="0 0 240 80" fill="none" xmlns="http://www.w3.org/2000/svg">
<path d="M50.752 62.64C47.3387 62.64 44.16 62.0853 41.216 60.976C38.3147 59.824 35.776 58.224 33.6 56.176C31.4667 54.0853 29.8027 51.632 28.608 48.816C27.4133 46 26.816 42.928 26.816 39.6C26.816 36.272 27.4133 33.2 28.608 30.384C29.8027 27.568 31.488 25.136 33.664 23.088C35.84 20.9973 38.3787 19.3973 41.28 18.288C44.1813 17.136 47.36 16.56 50.816 16.56C54.4853 16.56 57.8347 17.2 60.864 18.48C63.8933 19.7173 66.4533 21.5733 68.544 24.048L63.168 29.104C61.5467 27.3547 59.7333 26.0533 57.728 25.2C55.7227 24.304 53.5467 23.856 51.2 23.856C48.8533 23.856 46.6987 24.24 44.736 25.008C42.816 25.776 41.1307 26.864 39.68 28.272C38.272 29.68 37.1627 31.344 36.352 33.264C35.584 35.184 35.2 37.296 35.2 39.6C35.2 41.904 35.584 44.016 36.352 45.936C37.1627 47.856 38.272 49.52 39.68 50.928C41.1307 52.336 42.816 53.424 44.736 54.192C46.6987 54.96 48.8533 55.344 51.2 55.344C53.5467 55.344 55.7227 54.9173 57.728 54.064C59.7333 53.168 61.5467 51.824 63.168 50.032L68.544 55.152C66.4533 57.584 63.8933 59.44 60.864 60.72C57.8347 62 54.464 62.64 50.752 62.64ZM89.233 62.448C85.7343 62.448 82.6197 61.7013 79.889 60.208C77.1583 58.672 75.0037 56.5813 73.425 53.936C71.8463 51.2907 71.057 48.2827 71.057 44.912C71.057 41.4987 71.8463 38.4907 73.425 35.888C75.0037 33.2427 77.1583 31.1733 79.889 29.68C82.6197 28.1867 85.7343 27.44 89.233 27.44C92.7743 27.44 95.9103 28.1867 98.641 29.68C101.414 31.1733 103.569 33.2213 105.105 35.824C106.684 38.4267 107.473 41.456 107.473 44.912C107.473 48.2827 106.684 51.2907 105.105 53.936C103.569 56.5813 101.414 58.672 98.641 60.208C95.9103 61.7013 92.7743 62.448 89.233 62.448ZM89.233 55.6C91.1957 55.6 92.945 55.1733 94.481 54.32C96.017 53.4667 97.2117 52.2293 98.065 50.608C98.961 48.9867 99.409 47.088 99.409 44.912C99.409 42.6933 98.961 40.7947 98.065 39.216C97.2117 37.5947 96.017 36.3573 94.481 35.504C92.945 34.6507 91.217 34.224 89.297 34.224C87.3343 34.224 85.585 34.6507 84.049 35.504C82.5557 36.3573 81.361 37.5947 80.465 39.216C79.569 40.7947 79.121 42.6933 79.121 44.912C79.121 47.088 79.569 48.9867 80.465 50.608C81.361 52.2293 82.5557 53.4667 84.049 54.32C85.585 55.1733 87.313 55.6 89.233 55.6ZM115.123 62V27.824H122.739V37.04L121.395 34.224C122.59 32.048 124.318 30.384 126.579 29.232C128.883 28.0373 131.528 27.44 134.515 27.44C137.246 27.44 139.678 27.9733 141.811 29.04C143.987 30.1067 145.694 31.7493 146.931 33.968C148.168 36.144 148.787 38.96 148.787 42.416V62H140.787V43.44C140.787 40.4107 140.062 38.1493 138.611 36.656C137.203 35.1627 135.219 34.416 132.659 34.416C130.782 34.416 129.118 34.8 127.667 35.568C126.216 36.336 125.086 37.488 124.275 39.024C123.507 40.5173 123.123 42.416 123.123 44.72V62H115.123ZM160.024 62V25.904C160.024 22.32 161.069 19.4613 163.16 17.328C165.293 15.152 168.322 14.064 172.248 14.064C173.656 14.064 174.978 14.2133 176.216 14.512C177.496 14.8107 178.562 15.28 179.416 15.92L177.24 21.936C176.642 21.4667 175.96 21.1253 175.192 20.912C174.424 20.656 173.634 20.528 172.824 20.528C171.16 20.528 169.901 20.9973 169.048 21.936C168.194 22.832 167.768 24.1973 167.768 26.032V29.872L168.024 33.456V62H160.024ZM154.392 34.48V28.08H177.176V34.48H154.392ZM185.377 74.864C183.713 74.864 182.049 74.5867 180.385 74.032C178.721 73.4773 177.334 72.7093 176.224 71.728L179.424 65.84C180.235 66.5653 181.153 67.1413 182.177 67.568C183.201 67.9947 184.246 68.208 185.312 68.208C186.763 68.208 187.937 67.8453 188.833 67.12C189.729 66.3947 190.561 65.1787 191.329 63.472L193.312 58.992L193.953 58.032L206.881 27.824H214.561L198.561 64.752C197.494 67.312 196.299 69.3387 194.977 70.832C193.697 72.3253 192.246 73.3707 190.625 73.968C189.046 74.5653 187.297 74.864 185.377 74.864ZM192.417 63.216L176.992 27.824H185.312L197.857 57.328L192.417 63.216Z" fill="#434545"/>
</svg>
