<svg width="240" height="80" viewBox="0 0 240 80" fill="none" xmlns="http://www.w3.org/2000/svg">
<path d="M50.752 62.64C47.3387 62.64 44.16 62.0853 41.216 60.976C38.3147 59.824 35.776 58.224 33.6 56.176C31.4667 54.0853 29.8027 51.632 28.608 48.816C27.4133 46 26.816 42.928 26.816 39.6C26.816 36.272 27.4133 33.2 28.608 30.384C29.8027 27.568 31.488 25.136 33.664 23.088C35.84 20.9973 38.3787 19.3973 41.28 18.288C44.1813 17.136 47.36 16.56 50.816 16.56C54.4853 16.56 57.8347 17.2 60.864 18.48C63.8933 19.7173 66.4533 21.5733 68.544 24.048L63.168 29.104C61.5467 27.3547 59.7333 26.0533 57.728 25.2C55.7227 24.304 53.5467 23.856 51.2 23.856C48.8533 23.856 46.6987 24.24 44.736 25.008C42.816 25.776 41.1307 26.864 39.68 28.272C38.272 29.68 37.1627 31.344 36.352 33.264C35.584 35.184 35.2 37.296 35.2 39.6C35.2 41.904 35.584 44.016 36.352 45.936C37.1627 47.856 38.272 49.52 39.68 50.928C41.1307 52.336 42.816 53.424 44.736 54.192C46.6987 54.96 48.8533 55.344 51.2 55.344C53.5467 55.344 55.7227 54.9173 57.728 54.064C59.7333 53.168 61.5467 51.824 63.168 50.032L68.544 55.152C66.4533 57.584 63.8933 59.44 60.864 60.72C57.8347 62 54.464 62.64 50.752 62.64ZM89.7955 62.448C86.2968 62.448 83.1822 61.7013 80.4515 60.208C77.7208 58.672 75.5662 56.5813 73.9875 53.936C72.4088 51.2907 71.6195 48.2827 71.6195 44.912C71.6195 41.4987 72.4088 38.4907 73.9875 35.888C75.5662 33.2427 77.7208 31.1733 80.4515 29.68C83.1822 28.1867 86.2968 27.44 89.7955 27.44C93.3368 27.44 96.4728 28.1867 99.2035 29.68C101.977 31.1733 104.132 33.2213 105.668 35.824C107.246 38.4267 108.036 41.456 108.036 44.912C108.036 48.2827 107.246 51.2907 105.668 53.936C104.132 56.5813 101.977 58.672 99.2035 60.208C96.4728 61.7013 93.3368 62.448 89.7955 62.448ZM89.7955 55.6C91.7582 55.6 93.5075 55.1733 95.0435 54.32C96.5795 53.4667 97.7742 52.2293 98.6275 50.608C99.5235 48.9867 99.9715 47.088 99.9715 44.912C99.9715 42.6933 99.5235 40.7947 98.6275 39.216C97.7742 37.5947 96.5795 36.3573 95.0435 35.504C93.5075 34.6507 91.7795 34.224 89.8595 34.224C87.8968 34.224 86.1475 34.6507 84.6115 35.504C83.1182 36.3573 81.9235 37.5947 81.0275 39.216C80.1315 40.7947 79.6835 42.6933 79.6835 44.912C79.6835 47.088 80.1315 48.9867 81.0275 50.608C81.9235 52.2293 83.1182 53.4667 84.6115 54.32C86.1475 55.1733 87.8755 55.6 89.7955 55.6ZM135.078 27.44C137.808 27.44 140.24 27.9733 142.374 29.04C144.55 30.1067 146.256 31.7493 147.494 33.968C148.731 36.144 149.35 38.96 149.35 42.416V62H141.35V43.44C141.35 40.4107 140.624 38.1493 139.174 36.656C137.766 35.1627 135.782 34.416 133.222 34.416C131.344 34.416 129.68 34.8 128.23 35.568C126.779 36.336 125.648 37.488 124.838 39.024C124.07 40.5173 123.686 42.416 123.686 44.72V62H115.686V27.824H123.302V37.04L121.958 34.224C123.152 32.048 124.88 30.384 127.142 29.232C129.446 28.0373 132.091 27.44 135.078 27.44ZM160.586 62V25.904C160.586 22.32 161.631 19.4613 163.722 17.328C165.855 15.152 168.885 14.064 172.81 14.064C174.218 14.064 175.541 14.2133 176.778 14.512C178.058 14.8107 179.125 15.28 179.978 15.92L177.802 21.936C177.205 21.4667 176.522 21.1253 175.754 20.912C174.986 20.656 174.197 20.528 173.386 20.528C171.722 20.528 170.463 20.9973 169.61 21.936C168.757 22.832 168.33 24.1973 168.33 26.032V29.872L168.586 33.456V62H160.586ZM154.954 34.48V28.08H177.738V34.48H154.954ZM186.564 74.864C184.9 74.864 183.236 74.5867 181.572 74.032C179.908 73.4773 178.521 72.7093 177.412 71.728L180.612 65.84C181.423 66.5653 182.34 67.1413 183.364 67.568C184.388 67.9947 185.433 68.208 186.5 68.208C187.951 68.208 189.124 67.8453 190.02 67.12C190.916 66.3947 191.748 65.1787 192.516 63.472L194.5 58.992L195.14 58.032L208.068 27.824H215.748L199.748 64.752C198.681 67.312 197.487 69.3387 196.164 70.832C194.884 72.3253 193.433 73.3707 191.812 73.968C190.233 74.5653 188.484 74.864 186.564 74.864ZM193.604 63.216L178.18 27.824H186.5L199.044 57.328L193.604 63.216Z" fill="url(#paint0_linear_702_7452)"/>
<defs>
<linearGradient id="paint0_linear_702_7452" x1="24" y1="80" x2="24" y2="0" gradientUnits="userSpaceOnUse">
<stop stop-color="#A6AAAB"/>
<stop offset="1" stop-color="#3B80EB"/>
</linearGradient>
</defs>
</svg>
